<svg width="280" height="391" viewBox="0 0 280 391" fill="none" xmlns="http://www.w3.org/2000/svg">
<path d="M12.5 195.5L140 17.5L267 195.5L139.5 373.5L12.5 195.5Z" fill="#814EBE"/>
<path d="M148.141 11.6924L275.141 189.692L279.293 195.512L275.13 201.323L147.63 379.323L139.485 390.695L131.36 379.308L4.35986 201.308L0.20752 195.488L4.37061 189.677L131.871 11.6768L140.016 0.304688L148.141 11.6924ZM135 367.192V201H16.4243L135 367.192ZM145 365.821L263.061 201H145V365.821ZM145 191H263.79L145 24.5078V191ZM15.7241 191H135V24.4795L15.7241 191Z" fill="black"/>
</svg>
