<svg width="280" height="391" viewBox="0 0 280 391" fill="none" xmlns="http://www.w3.org/2000/svg">
<path d="M12.5 195.5L140 17.5L267 195.5L139.5 373.5L12.5 195.5Z" fill="#814EBE"/>
<path d="M148.141 11.6924L275.141 189.692L279.293 195.512L275.13 201.323L147.63 379.323L139.485 390.695L131.36 379.308L4.35986 201.308L0.20752 195.488L4.37061 189.677L62.4487 108.595L62.0083 108.011L63.8765 106.601L131.871 11.6768L140.016 0.304688L148.141 11.6924ZM79.8413 289.884L139.5 373.5L199.271 290.055L136.809 207.215L79.8413 289.884ZM142.79 198.537L205.373 281.536L267 195.5L204.881 108.435L142.79 198.537ZM12.5005 195.5L73.6636 281.225L130.463 198.8L68.7563 116.961L12.5005 195.5ZM74.8579 108.443L136.444 190.121L198.704 99.7764L140 17.5L74.8579 108.443Z" fill="black"/>
</svg>
