<svg width="360" height="360" viewBox="0 0 360 360" fill="none" xmlns="http://www.w3.org/2000/svg">
<circle cx="170" cy="170" r="170" transform="matrix(4.37114e-08 -1 -1 -4.37114e-08 350 350)" fill="#1357A9"/>
<path d="M360 180C360 279.411 279.411 360 180 360C80.5887 360 -1.22135e-05 279.411 -7.86805e-06 180C-3.52265e-06 80.5887 80.5887 -1.22135e-05 180 -7.86805e-06C279.411 -3.52265e-06 360 80.5887 360 180ZM170 10.293C80.7663 15.4692 10 89.4686 9.99999 180C9.99999 270.531 80.7663 344.531 170 349.707L170 10.293ZM350 180C350 86.1116 273.888 10 180 9.99999L180 350C273.888 350 350 273.888 350 180Z" fill="black"/>
</svg>
