<svg width="360" height="360" viewBox="0 0 360 360" fill="none" xmlns="http://www.w3.org/2000/svg">
<circle cx="170" cy="170" r="170" transform="matrix(4.37114e-08 -1 -1 -4.37114e-08 350 350)" fill="#1357A9"/>
<path d="M180 360C279.411 360 360 279.411 360 180C360 80.5887 279.411 0 180 0C80.5887 0 0 80.5887 0 180C0 279.411 80.5887 360 180 360ZM10.293 170C15.4693 80.7663 89.4686 10 180 10C270.531 10 344.531 80.7663 349.707 170H10.293ZM180 350C86.1116 350 10 273.888 10 180H350C350 273.888 273.888 350 180 350Z" fill="black"/>
</svg>
