<svg width="680" height="680" viewBox="0 0 680 680" fill="none" xmlns="http://www.w3.org/2000/svg">
<circle cx="170" cy="170" r="170" transform="matrix(4.21468e-08 -1 -1 -4.21468e-08 510 510)" fill="#1357A9"/>
<path d="M467.279 212.721C537.574 283.015 537.574 396.985 467.279 467.28C396.985 537.574 283.015 537.574 212.721 467.28C142.426 396.985 142.426 283.015 212.721 212.721C283.015 142.427 396.985 142.427 467.279 212.721ZM212.926 227.072C153.49 293.83 155.777 396.194 219.792 460.208C283.807 524.223 386.17 526.51 452.928 467.074L212.926 227.072ZM460.208 219.792C393.819 153.403 286.181 153.403 219.792 219.792L219.79 219.794L460.203 460.208L459.762 460.649C459.91 460.502 460.06 460.356 460.208 460.208C526.597 393.819 526.597 286.181 460.208 219.792Z" fill="black"/>
</svg>
