<svg width="680" height="680" viewBox="0 0 680 680" fill="none" xmlns="http://www.w3.org/2000/svg">
<circle cx="170" cy="170" r="170" transform="matrix(4.21468e-08 -1 -1 -4.21468e-08 510 510)" fill="#1357A9"/>
<path d="M212.719 211.721C283.014 141.426 396.983 141.426 467.278 211.721C537.572 282.015 537.572 395.985 467.278 466.279C396.983 536.574 283.014 536.574 212.719 466.279C142.425 395.985 142.425 282.015 212.719 211.721ZM227.068 466.073C293.826 525.51 396.191 523.224 460.207 459.208C524.222 395.193 526.508 292.828 467.071 226.07L227.068 466.073ZM219.79 218.792C153.401 285.181 153.401 392.819 219.79 459.208L460.207 218.792C393.818 152.403 286.18 152.403 219.79 218.792Z" fill="black"/>
</svg>
