<svg width="340" height="340" viewBox="0 0 340 340" fill="none" xmlns="http://www.w3.org/2000/svg">
<circle cx="170" cy="170" r="170" transform="matrix(-1 0 0 1 340 0)" fill="#1357A9"/>
<path d="M170 0C76.1116 0 0 76.1116 0 170C0 204.323 10.1736 236.269 27.667 262.99C27.7286 263.097 27.7928 263.204 27.8633 263.308C27.9043 263.368 27.948 263.426 27.9912 263.484C58.3983 309.581 110.646 340 170 340C263.888 340 340 263.888 340 170C340 76.1116 263.888 0 170 0ZM299.758 263.627C270.695 303.835 223.404 330 170 330C115.801 330 67.8992 303.049 38.957 261.82L170.448 172.577L299.758 263.627ZM175.5 10.0957C261.319 12.9947 330 83.4752 330 170C330 201.377 320.966 230.642 305.36 255.342L175.5 163.905V10.0957ZM165.5 163.851L33.4697 253.46C18.5842 229.161 10 200.584 10 170C10 83.1394 79.2152 12.4463 165.5 10.0635V163.851Z" fill="black"/>
</svg>
