<svg width="340" height="340" viewBox="0 0 340 340" fill="none" xmlns="http://www.w3.org/2000/svg">
<circle cx="170" cy="170" r="170" transform="matrix(-1 0 0 1 340 0)" fill="#1357A9"/>
<path d="M170 340C76.1116 340 0 263.888 0 170C0 135.677 10.1736 103.731 27.667 77.0098C27.7286 76.9028 27.7928 76.7962 27.8633 76.6924C27.9043 76.6319 27.948 76.5737 27.9912 76.5156C58.3983 30.4185 110.646 0 170 0C263.888 0 340 76.1116 340 170C340 263.888 263.888 340 170 340ZM299.758 76.373C270.695 36.1648 223.404 10 170 10C115.801 10 67.8992 36.9507 38.957 78.1797L170.448 167.423L299.758 76.373ZM175.5 329.904C261.319 327.005 330 256.525 330 170C330 138.623 320.966 109.358 305.36 84.6582L175.5 176.095V329.904ZM165.5 176.149L33.4697 86.54C18.5842 110.839 10 139.416 10 170C10 256.861 79.2152 327.554 165.5 329.937V176.149Z" fill="black"/>
</svg>
