<svg width="340" height="340" viewBox="0 0 340 340" fill="none" xmlns="http://www.w3.org/2000/svg">
<circle cx="170" cy="170" r="170" transform="matrix(-1 0 0 1 340 0)" fill="#1357A9"/>
<path d="M340 170C340 263.888 263.888 340 170 340C135.677 340 103.731 329.826 77.0098 312.333C76.9028 312.271 76.7962 312.207 76.6924 312.137C76.6319 312.096 76.5737 312.052 76.5156 312.009C30.4185 281.602 0 229.354 0 170C0 76.1116 76.1116 0 170 0C263.888 0 340 76.1116 340 170ZM76.373 40.2422C36.1648 69.3053 10 116.596 10 170C10 224.199 36.9507 272.101 78.1797 301.043L167.423 169.552L76.373 40.2422ZM329.904 164.5C327.005 78.6811 256.525 10 170 10C138.623 10 109.358 19.0343 84.6582 34.6396L176.095 164.5H329.904ZM176.149 174.5L86.54 306.53C110.839 321.416 139.416 330 170 330C256.861 330 327.554 260.785 329.937 174.5H176.149Z" fill="black"/>
</svg>
