<svg width="360" height="360" viewBox="0 0 360 360" fill="none" xmlns="http://www.w3.org/2000/svg">
<path d="M9.99999 180C9.99998 157.675 14.3972 135.569 22.9405 114.944C31.4838 94.3185 44.0059 75.5778 59.7918 59.7919C75.5778 44.0059 94.3184 31.4838 114.944 22.9405C135.569 14.3972 157.675 10 180 10C202.325 10 224.431 14.3972 245.056 22.9405C265.682 31.4838 284.422 44.0059 300.208 59.7919C315.994 75.5778 328.516 94.3185 337.06 114.944C345.603 135.569 350 157.675 350 180L180 180L9.99999 180Z" fill="#1357A9"/>
<path d="M180 0C279.411 0 360 80.5887 360 180C360 279.411 279.411 360 180 360C80.5887 360 0 279.411 0 180C0 80.5887 80.5887 0 180 0ZM10.293 190C15.4693 279.234 89.4686 350 180 350C270.531 350 344.531 279.234 349.707 190H10.293ZM180 10C86.1116 10 10 86.1116 10 180H350C350 86.1116 273.888 10 180 10Z" fill="black"/>
</svg>
