<svg width="510" height="510" viewBox="0 0 510 510" fill="none" xmlns="http://www.w3.org/2000/svg">
<path d="M134.792 134.792C150.578 119.006 169.318 106.484 189.944 97.9402C210.569 89.3969 232.675 84.9997 255 84.9997C277.325 84.9997 299.431 89.3969 320.056 97.9402C340.681 106.483 359.422 119.006 375.208 134.792C390.994 150.578 403.516 169.318 412.059 189.944C420.603 210.569 425 232.675 425 255C425 277.324 420.603 299.431 412.059 320.056C403.516 340.681 390.994 359.422 375.208 375.208L255 255L134.792 134.792Z" fill="#1357A9"/>
<path d="M382.279 127.721C452.574 198.015 452.574 311.985 382.279 382.28C311.985 452.574 198.015 452.574 127.721 382.28C57.4264 311.985 57.4264 198.015 127.721 127.721C198.015 57.4267 311.985 57.4267 382.279 127.721ZM127.926 142.072C68.4903 208.83 70.7772 311.194 134.792 375.208C198.807 439.223 301.17 441.51 367.928 382.074L127.926 142.072ZM375.208 134.792C308.819 68.4031 201.181 68.4031 134.792 134.792L134.79 134.794L375.203 375.208L374.762 375.649C374.91 375.502 375.06 375.356 375.208 375.208C441.597 308.819 441.597 201.181 375.208 134.792Z" fill="black"/>
</svg>
