<svg width="510" height="510" viewBox="0 0 510 510" fill="none" xmlns="http://www.w3.org/2000/svg">
<path d="M134.794 375.208C119.008 359.422 106.485 340.682 97.9422 320.056C89.3989 299.431 85.0017 277.325 85.0017 255C85.0017 232.675 89.3988 210.569 97.9422 189.944C106.485 169.319 119.008 150.578 134.794 134.792C150.579 119.006 169.32 106.484 189.945 97.9405C210.571 89.3972 232.677 85 255.002 85C277.326 85 299.433 89.3972 320.058 97.9405C340.683 106.484 359.424 119.006 375.21 134.792L255.002 255L134.794 375.208Z" fill="#1357A9"/>
<path d="M127.719 127.721C198.014 57.4264 311.983 57.4264 382.278 127.721C452.572 198.015 452.572 311.985 382.278 382.279C311.983 452.574 198.014 452.574 127.719 382.279C57.4248 311.985 57.4248 198.015 127.719 127.721ZM142.068 382.073C208.826 441.51 311.191 439.224 375.207 375.208C439.222 311.193 441.508 208.828 382.07 142.07L142.068 382.073ZM134.79 134.792C68.4011 201.181 68.4011 308.819 134.79 375.208L375.207 134.792C308.817 68.4027 201.179 68.4027 134.79 134.792Z" fill="black"/>
</svg>
