<svg width="510" height="510" viewBox="0 0 510 510" fill="none" xmlns="http://www.w3.org/2000/svg">
<circle cx="255.002" cy="255" r="170" transform="rotate(-45 255.002 255)" fill="#1357A9"/>
<path d="M382.285 382.279C311.99 452.574 198.021 452.574 127.726 382.279C57.4319 311.985 57.4319 198.015 127.726 127.721C198.021 57.4264 311.99 57.4264 382.285 127.721C452.579 198.015 452.579 311.985 382.285 382.279ZM367.936 127.927C301.178 68.4896 198.813 70.7765 134.797 134.792C70.782 198.807 68.4959 301.172 127.933 367.93L367.936 127.927ZM375.214 375.208C441.603 308.819 441.603 201.181 375.214 134.792L134.797 375.208C201.187 441.597 308.825 441.597 375.214 375.208Z" fill="black"/>
<line x1="371.371" y1="379.044" x2="130.954" y2="138.628" stroke="black" stroke-width="10"/>
</svg>
