<svg width="340" height="340" viewBox="0 0 340 340" fill="none" xmlns="http://www.w3.org/2000/svg">
<path fill-rule="evenodd" clip-rule="evenodd" d="M164.517 0.0864669C73.1661 2.98107 0 77.946 0 170C0 201.098 8.3502 230.246 22.9308 255.324L164.5 171.647V0.499714C164.5 0.360564 164.506 0.222742 164.517 0.0864669ZM28.2106 263.819C58.6494 309.729 110.79 340 170 340C229.652 340 282.127 309.276 312.466 262.79L169.53 180.29L28.2106 263.819ZM317.685 254.256C331.885 229.42 340 200.658 340 170C340 77.6095 266.298 2.43327 174.481 0.0576172C174.493 0.203281 174.5 0.350737 174.5 0.499714V171.613L317.685 254.256Z" fill="#1357A9"/>
</svg>
