<svg width="340" height="340" viewBox="0 0 340 340" fill="none" xmlns="http://www.w3.org/2000/svg">
<path fill-rule="evenodd" clip-rule="evenodd" d="M171.248 339.996C264.562 339.325 340 263.472 340 170C340 142.507 333.474 116.538 321.886 93.5589C321.715 95.084 320.847 96.5107 319.416 97.3368L171.228 182.893L171.248 339.996ZM161.248 339.779C71.4268 335.223 0 260.953 0 170C0 145.058 5.37155 121.37 15.0209 100.031C15.4208 100.556 15.932 101.011 16.5438 101.355L161.228 182.928L161.248 339.779ZM18.9105 92C19.7724 91.9839 20.6498 92.1905 21.455 92.6445L166.198 174.25L314.416 88.6766C315.971 87.7788 317.808 87.8112 319.282 88.6012C290.435 35.8087 234.399 0 170 0C104.228 0 47.18 37.3515 18.9105 92Z" fill="#1357A9"/>
</svg>
