<svg width="340" height="293" viewBox="0 0 340 293" fill="none" xmlns="http://www.w3.org/2000/svg">
<path d="M339.838 146.279L255.005 292.279H85.0004L0.162295 146.279H0L0.0811449 146.139L0 146H0.162284L84.995 0H255L339.838 146H340L339.919 146.139L340 146.279H339.838Z" fill="#DC6902"/>
<path d="M0 146.279L84.9951 292.559H165V293H175V292.559H255L340 146.279L255 0H84.9951L0 146.279ZM165 282.559H90.751L11.5664 146.278L90.751 10H165V282.559ZM328.435 146.279L249.245 282.559H175V10H249.245L328.435 146.279Z" fill="black"/>
</svg>
