<svg width="442" height="424" viewBox="0 0 442 424" fill="none" xmlns="http://www.w3.org/2000/svg">
<path d="M368.012 297.179L221.545 381.203L74.3168 296.2L73.8448 127.342L73.7042 127.26L73.8443 127.18L73.8439 127.019L73.9844 127.1L220.452 43.0766L367.68 128.079L368.152 296.938L368.292 297.019L368.152 297.099L368.153 297.26L368.012 297.179Z" fill="#DC6902"/>
<path d="M220.998 383.279L74.7187 298.284L74.7187 128.279L220.998 43.2793L367.277 128.279L367.277 298.284L220.998 383.279ZM216.277 57.5879L84.7187 134.034L84.7187 292.528L216.277 368.97L216.277 57.5879ZM226.277 57.9121L226.277 368.646L357.277 292.528L357.277 134.034L226.277 57.9121Z" fill="black"/>
</svg>
