<svg width="612" height="612" viewBox="0 0 612 612" fill="none" xmlns="http://www.w3.org/2000/svg">
<path d="M470.118 262.337L425.963 425.319L261.751 469.319L142.017 350.252L141.86 350.294L141.902 350.138L141.788 350.024L141.944 349.982L186.099 187.001L350.311 143L470.046 262.068L470.202 262.026L470.16 262.181L470.275 262.295L470.118 262.337Z" fill="#DC6902"/>
<path d="M426.208 426.487L262.672 469.822L142.46 349.61L185.791 186.071L349.331 142.74L469.542 262.951L426.208 426.487ZM192.571 199.528L153.601 346.608L265.673 458.681L412.75 419.707L192.571 199.528ZM199.871 192.685L419.593 412.408L458.401 265.952L346.329 153.88L199.871 192.685Z" fill="black"/>
</svg>
