<svg width="448" height="449" viewBox="0 0 448 449" fill="none" xmlns="http://www.w3.org/2000/svg">
<path d="M343.736 104.549L386.988 267.773L266.777 387.984L103.55 344.736L103.435 344.851L103.394 344.695L103.237 344.653L103.352 344.539L60.1005 181.315L180.312 61.1041L343.539 104.352L343.654 104.237L343.695 104.393L343.851 104.435L343.736 104.549Z" fill="#DC6902"/>
<path d="M103.796 344.485L267.332 387.82L387.543 267.608L344.212 104.069L180.673 60.7379L60.4617 180.949L103.796 344.485ZM337.433 117.526L376.403 264.606L264.331 376.679L117.254 337.705L337.433 117.526ZM330.133 110.683L110.411 330.406L71.6027 183.951L183.675 71.8782L330.133 110.683Z" fill="black"/>
</svg>
