<svg width="392" height="339" viewBox="0 0 392 339" fill="none" xmlns="http://www.w3.org/2000/svg">
<path d="M103 181L188 329H18L103 181Z" fill="#D24059"/>
<path d="M289 181L374 329H204L289 181Z" fill="#D24059"/>
<path d="M204.62 15L382.987 323.94L391.647 338.94H0.273438L8.93359 323.94L187.3 15L195.96 0L204.62 15ZM207.444 328.94H374.327L288.851 180.891L207.444 328.94ZM17.5938 328.94H184.556L103.109 180.82L17.5938 328.94ZM110.949 171.51C110.316 171.596 109.923 172.259 110.153 172.855L110.212 172.981L195.124 327.406C195.504 328.097 196.496 328.097 196.876 327.406L281.788 172.981C282.131 172.357 281.729 171.602 281.051 171.51L280.911 171.5H111.089L110.949 171.51ZM114.266 161.5H277.655L195.96 20L114.266 161.5Z" fill="black"/>
</svg>
