<svg width="332" height="331" viewBox="0 0 332 331" fill="none" xmlns="http://www.w3.org/2000/svg">
<path d="M8 319.511L7.99999 4.5L9.4951 6L332 5.99999L171.5 166L69.1445 65.8369L168 165L167.531 165.479L328.5 323L13.3818 323L8 328.5L8 323L4.5 323L8 319.511Z" fill="#814EBE"/>
<path d="M0 0H331V331H0V0ZM308.808 10H20.4346L164.621 154.187L308.808 10ZM321 11.9502L171.692 161.258L321 310.565V11.9502ZM157.551 161.258L10 13.707V308.808L157.551 161.258ZM164.622 168.329L11.9502 321H317.293L164.622 168.329Z" fill="black"/>
</svg>
