<svg width="342" height="342" viewBox="0 0 342 342" fill="none" xmlns="http://www.w3.org/2000/svg">
<path fill-rule="evenodd" clip-rule="evenodd" d="M340.736 161C340.081 150.084 338.358 139.072 335.493 128.089C316.447 55.0782 252.733 5.58557 181.293 1.26601L181.293 161H340.736ZM340.998 167.366V171H181.293L181.293 340.72C192.113 340.052 203.025 338.334 213.909 335.495C291.635 315.219 342.708 244.319 340.998 167.366ZM174.641 341C97.6846 342.714 26.7799 291.64 6.50289 213.911C2.421 198.264 0.657011 182.557 0.997722 167.154V171L171.293 171L171.293 341L174.641 341ZM1.24632 161L171.293 161L171.293 0.999609H174.835C159.435 0.659794 143.731 2.42388 128.087 6.50498C54.9755 25.5773 5.44712 89.4403 1.24632 161Z" fill="#1357A9"/>
</svg>
