<svg width="340" height="340" viewBox="0 0 340 340" fill="none" xmlns="http://www.w3.org/2000/svg">
<path fill-rule="evenodd" clip-rule="evenodd" d="M340 170C340 209.059 326.828 245.041 304.683 273.746L182.459 176.008L303.168 64.3192C326.226 93.3349 340 130.059 340 170ZM296.714 56.6677C265.585 21.888 220.349 0 170 0C117.389 0 70.3606 23.8987 39.1776 61.4321L174.561 169.693L296.714 56.6677ZM167.138 176.561L33.0148 69.3081C12.2624 97.4931 0 132.315 0 170C0 215.605 17.9578 257.016 47.188 287.547L167.138 176.561ZM175.036 182.877L54.3195 294.572C84.6615 322.762 125.318 340 170 340C221.236 340 267.177 317.334 298.345 281.482L175.036 182.877Z" fill="#1357A9"/>
</svg>
