<svg width="332" height="331" viewBox="0 0 332 331" fill="none" xmlns="http://www.w3.org/2000/svg">
<path d="M9.4951 6L332 5.99999L171.5 166L69.1445 65.8369L168 165L8 328.5L7.99999 4.5L9.4951 6Z" fill="#814EBE"/>
<path d="M331 -1.44685e-05L331 331L0 331L-1.44685e-05 0L331 -1.44685e-05ZM321 308.807L321 20.4336L176.813 164.621L321 308.807ZM319.051 321L169.742 171.692L20.4336 321L319.051 321ZM169.742 157.55L317.292 9.99999L22.1933 10L169.742 157.55ZM162.671 164.621L9.99999 11.9492L10 317.292L162.671 164.621Z" fill="black"/>
</svg>
