<svg width="340" height="340" viewBox="0 0 340 340" fill="none" xmlns="http://www.w3.org/2000/svg">
<path d="M315.225 258.372C300.29 282.916 279.379 303.273 254.444 317.544C229.509 331.815 201.364 339.534 172.637 339.98C143.911 340.425 115.54 333.583 90.174 320.093C64.8083 306.602 43.2754 286.903 27.5863 262.835L170 170L315.225 258.372Z" fill="#1357A9"/>
<path d="M170 0C263.888 0 340 76.1116 340 170C340 204.323 329.826 236.269 312.333 262.99C312.271 263.097 312.207 263.204 312.137 263.308C312.096 263.368 312.052 263.426 312.009 263.484C281.602 309.581 229.354 340 170 340C76.1116 340 0 263.888 0 170C0 76.1116 76.1116 0 170 0ZM40.2422 263.627C69.3053 303.835 116.596 330 170 330C224.199 330 272.101 303.049 301.043 261.82L169.552 172.577L40.2422 263.627ZM164.5 10.0957C78.6811 12.9947 10 83.4752 10 170C10 201.377 19.0343 230.642 34.6396 255.342L164.5 163.905V10.0957ZM174.5 163.851L306.53 253.46C321.416 229.161 330 200.584 330 170C330 83.1394 260.785 12.4463 174.5 10.0635V163.851Z" fill="black"/>
</svg>
