<svg width="340" height="340" viewBox="0 0 340 340" fill="none" xmlns="http://www.w3.org/2000/svg">
<path d="M24.775 81.6275C39.7099 57.0845 60.6214 36.7269 85.5563 22.4559C110.491 8.18491 138.636 0.466125 167.363 0.0204468C196.089 -0.425232 224.46 6.41672 249.826 19.9073C275.192 33.3979 296.725 53.097 312.414 77.1649L170 170L24.775 81.6275Z" fill="#1357A9"/>
<path d="M170 340C76.1116 340 0 263.888 0 170C0 135.677 10.1736 103.731 27.667 77.0098C27.7286 76.9028 27.7928 76.7962 27.8633 76.6924C27.9043 76.6319 27.948 76.5737 27.9912 76.5156C58.3983 30.4185 110.646 0 170 0C263.888 0 340 76.1116 340 170C340 263.888 263.888 340 170 340ZM299.758 76.373C270.695 36.1648 223.404 10 170 10C115.801 10 67.8992 36.9507 38.957 78.1797L170.448 167.423L299.758 76.373ZM175.5 329.904C261.319 327.005 330 256.525 330 170C330 138.623 320.966 109.358 305.36 84.6582L175.5 176.095V329.904ZM165.5 176.149L33.4697 86.54C18.5842 110.839 10 139.416 10 170C10 256.861 79.2152 327.554 165.5 329.937V176.149Z" fill="black"/>
</svg>
