<svg width="340" height="340" viewBox="0 0 340 340" fill="none" xmlns="http://www.w3.org/2000/svg">
<path d="M81.6275 24.775C57.0845 39.7099 36.7269 60.6214 22.4559 85.5563C8.18491 110.491 0.466128 138.636 0.0204488 167.363C-0.42523 196.089 6.41672 224.46 19.9073 249.826C33.3979 275.192 53.097 296.725 77.1649 312.414L170 170L81.6275 24.775Z" fill="#1357A9"/>
<path d="M340 170C340 76.1116 263.888 -9.07622e-07 170 -2.02723e-06C135.677 -2.43653e-06 103.731 10.1736 77.0098 27.667C76.9028 27.7286 76.7962 27.7928 76.6924 27.8633C76.6319 27.9043 76.5737 27.948 76.5156 27.9912C30.4185 58.3983 2.73502e-06 110.646 2.02723e-06 170C9.07622e-07 263.888 76.1116 340 170 340C263.888 340 340 263.888 340 170ZM76.373 299.758C36.1648 270.695 10 223.404 10 170C10 115.801 36.9507 67.8992 78.1797 38.957L167.423 170.448L76.373 299.758ZM329.904 175.5C327.005 261.319 256.525 330 170 330C138.623 330 109.358 320.966 84.6582 305.36L176.095 175.5L329.904 175.5ZM176.149 165.5L86.54 33.4697C110.839 18.5842 139.416 10 170 10C256.861 10 327.554 79.2152 329.937 165.5L176.149 165.5Z" fill="black"/>
</svg>
