<svg width="340" height="340" viewBox="0 0 340 340" fill="none" xmlns="http://www.w3.org/2000/svg">
<path fill-rule="evenodd" clip-rule="evenodd" d="M337.622 198.495C339.186 189.23 340 179.71 340 170C340 76.1116 263.888 0 170 0C128.769 0 90.9664 14.6782 61.5325 39.0942L337.622 198.495ZM335.543 208.841L53.6254 46.0761C29.2181 69.0055 11.5862 99.0637 4.05435 132.926L285.047 295.158C309.713 272.473 327.655 242.59 335.543 208.841ZM277.037 302.08C247.813 325.792 210.566 340 170 340C76.1116 340 0 263.888 0 170C0 160.927 0.710694 152.021 2.07945 143.333L277.037 302.08Z" fill="#1357A9"/>
</svg>
