<svg width="340" height="340" viewBox="0 0 340 340" fill="none" xmlns="http://www.w3.org/2000/svg">
<path fill-rule="evenodd" clip-rule="evenodd" d="M252.31 318.781C304.603 289.789 340 234.028 340 170C340 128.852 325.381 91.1182 301.053 61.7098L229.995 102.747L252.31 318.781ZM242.763 323.685C220.705 334.147 196.036 340 170 340C76.1116 340 0 263.888 0 170C0 107.937 33.2579 53.6414 82.924 23.9636L219.977 103.091L242.763 323.685ZM93.1505 18.3209L224.688 94.2641L294.321 54.0496C263.29 20.7931 219.073 0 170 0C142.344 0 116.231 6.60393 93.1505 18.3209Z" fill="#1357A9"/>
</svg>
