<svg width="340" height="340" viewBox="0 0 340 340" fill="none" xmlns="http://www.w3.org/2000/svg">
<path fill-rule="evenodd" clip-rule="evenodd" d="M340 170C340 196.524 333.926 221.629 323.092 244L180 244L180 0.289248C269.234 5.46543 340 79.4685 340 170ZM170 2.02723e-06C76.1116 9.07622e-07 3.14684e-06 76.1116 2.02723e-06 170C1.71094e-06 196.524 6.07434 221.629 16.9078 244L170 244L170 2.02723e-06ZM170 340C106.664 340 51.4179 305.364 22.169 254L170 254L180 254L317.831 254C288.582 305.364 233.336 340 170 340Z" fill="#1357A9"/>
</svg>
