<svg width="280" height="391" viewBox="0 0 280 391" fill="none" xmlns="http://www.w3.org/2000/svg">
<path d="M12.5 195.5L140 17.5L267 195.5L139.5 373.5L12.5 195.5Z" fill="#814EBE"/>
<path d="M148.141 11.6924L275.141 189.692L279.293 195.512L275.13 201.323L147.63 379.323L139.484 390.695L131.359 379.308L4.35938 201.308L0.207031 195.488L4.37012 189.677L62.4482 108.595L62.0078 108.011L63.876 106.601L131.87 11.6768L140.016 0.304688L148.141 11.6924ZM12.5 195.5L139.5 373.5L199.271 290.055L68.7559 116.961L12.5 195.5ZM74.8574 108.443L205.372 281.536L267 195.5L140 17.5L74.8574 108.443Z" fill="black"/>
</svg>
