<svg width="360" height="360" viewBox="0 0 360 360" fill="none" xmlns="http://www.w3.org/2000/svg">
<path d="M350 180C350 213.623 340.03 246.491 321.35 274.447C302.67 302.403 276.12 324.193 245.056 337.06C213.993 349.926 179.811 353.293 146.835 346.733C113.858 340.174 83.5668 323.983 59.7918 300.208C36.0169 276.433 19.826 246.142 13.2665 213.165C6.70701 180.189 10.0736 146.007 22.9405 114.944C35.8074 83.8804 57.5967 57.33 85.5531 38.6501C113.509 19.9703 146.377 9.99999 180 9.99999L180 180L350 180Z" fill="#1357A9"/>
<path d="M360 180C360 279.411 279.411 360 180 360C80.5887 360 -1.22135e-05 279.411 -7.86805e-06 180C-3.52265e-06 80.5887 80.5887 -1.22135e-05 180 -7.86805e-06C279.411 -3.52265e-06 360 80.5887 360 180ZM170 10.293C80.7663 15.4692 10 89.4686 9.99999 180C9.99999 270.531 80.7663 344.531 170 349.707L170 10.293ZM350 180C350 86.1116 273.888 10 180 9.99999L180 350C273.888 350 350 273.888 350 180Z" fill="black"/>
<line x1="350" y1="185.425" x2="10" y2="185.425" stroke="black" stroke-width="10"/>
</svg>
