<svg width="510" height="510" viewBox="0 0 510 510" fill="none" xmlns="http://www.w3.org/2000/svg">
<path d="M375.21 375.208C351.435 398.983 321.144 415.174 288.168 421.733C255.191 428.293 221.009 424.926 189.946 412.059C158.883 399.193 132.332 377.403 113.652 349.447C94.9726 321.491 85.0022 288.623 85.0022 255C85.0022 221.377 94.9726 188.509 113.652 160.553C132.332 132.597 158.883 110.807 189.946 97.9405C221.009 85.0736 255.191 81.707 288.168 88.2665C321.144 94.826 351.435 111.017 375.21 134.792L255.002 255L375.21 375.208Z" fill="#1357A9"/>
<path d="M382.285 382.279C311.99 452.574 198.021 452.574 127.726 382.279C57.4319 311.985 57.4319 198.015 127.726 127.721C198.021 57.4264 311.99 57.4264 382.285 127.721C452.579 198.015 452.579 311.985 382.285 382.279ZM367.936 127.927C301.178 68.4896 198.813 70.7765 134.797 134.792C70.782 198.807 68.4959 301.172 127.933 367.93L367.936 127.927ZM375.214 375.208C441.603 308.819 441.603 201.181 375.214 134.792L134.797 375.208C201.187 441.597 308.825 441.597 375.214 375.208Z" fill="black"/>
<line x1="371.371" y1="379.044" x2="130.954" y2="138.628" stroke="black" stroke-width="10"/>
</svg>
