<svg width="360" height="360" viewBox="0 0 360 360" fill="none" xmlns="http://www.w3.org/2000/svg">
<path d="M9.99999 180C9.99999 157.675 14.3972 135.569 22.9405 114.944C31.4838 94.3184 44.0059 75.5778 59.7918 59.7918C75.5778 44.0059 94.3185 31.4838 114.944 22.9405C135.569 14.3972 157.675 9.99999 180 9.99999L180 180L9.99999 180Z" fill="#1357A9"/>
<path d="M350 180C350 202.325 345.603 224.431 337.06 245.056C328.516 265.682 315.994 284.422 300.208 300.208C284.422 315.994 265.682 328.516 245.056 337.06C224.431 345.603 202.325 350 180 350L180 180L350 180Z" fill="#1357A9"/>
<path d="M360 180C360 279.411 279.411 360 180 360C80.5887 360 -1.22135e-05 279.411 -7.86805e-06 180C-3.52265e-06 80.5887 80.5887 -1.22135e-05 180 -7.86805e-06C279.411 -3.52265e-06 360 80.5887 360 180ZM170 10.293C80.7663 15.4692 10 89.4686 9.99999 180C9.99999 270.531 80.7663 344.531 170 349.707L170 10.293ZM350 180C350 86.1116 273.888 10 180 9.99999L180 350C273.888 350 350 273.888 350 180Z" fill="black"/>
<line x1="350" y1="185.425" x2="10" y2="185.425" stroke="black" stroke-width="10"/>
</svg>
