<svg width="511" height="510" viewBox="0 0 511 510" fill="none" xmlns="http://www.w3.org/2000/svg">
<path d="M135.294 134.585C151.08 118.799 169.821 106.277 190.446 97.7334C211.071 89.1901 233.178 84.7929 255.502 84.793C277.827 84.793 299.933 89.1901 320.558 97.7334C341.184 106.277 359.924 118.799 375.71 134.585L255.502 254.793L135.294 134.585Z" fill="#1357A9"/>
<path d="M135.294 375.001C151.08 390.787 169.821 403.309 190.446 411.853C211.071 420.396 233.178 424.793 255.502 424.793C277.827 424.793 299.933 420.396 320.558 411.853C341.184 403.309 359.924 390.787 375.71 375.001L255.502 254.793L135.294 375.001Z" fill="#1357A9"/>
<path d="M382.785 382.072C312.49 452.367 198.521 452.367 128.226 382.072C57.9319 311.778 57.9319 197.808 128.226 127.514C198.521 57.2194 312.49 57.2194 382.785 127.514C453.079 197.808 453.079 311.778 382.785 382.072ZM368.436 127.72C301.678 68.2826 199.313 70.5695 135.297 134.585C71.282 198.6 68.9959 300.965 128.433 367.723L368.436 127.72ZM375.714 375.001C442.103 308.612 442.103 200.974 375.714 134.585L135.297 375.001C201.687 441.39 309.325 441.39 375.714 375.001Z" fill="black"/>
<line x1="371.871" y1="378.837" x2="131.454" y2="138.421" stroke="black" stroke-width="10"/>
</svg>
