<svg width="340" height="340" viewBox="0 0 340 340" fill="none" xmlns="http://www.w3.org/2000/svg">
<path fill-rule="evenodd" clip-rule="evenodd" d="M234.5 12.6629C214.61 4.50057 192.831 0 170 0C76.1116 0 0 76.1116 0 170C0 211.936 15.1846 250.326 40.3555 279.97L234.5 139.447V12.6629ZM47.0877 287.442C78.0406 319.828 121.665 340 170 340C252.302 340 320.945 281.514 336.633 203.836L239.807 147.95L47.0877 287.442ZM338.414 193.318C339.46 185.695 340 177.911 340 170C340 102.833 301.047 44.7642 244.5 17.1509V139.113L338.414 193.318Z" fill="#1357A9"/>
</svg>
