<svg width="340" height="340" viewBox="0 0 340 340" fill="none" xmlns="http://www.w3.org/2000/svg">
<path fill-rule="evenodd" clip-rule="evenodd" d="M340 170C340 263.888 263.888 340 170 340C138.631 340 109.246 331.504 84.0214 316.687L191.46 3.24248L183.553 0.532377C271.105 7.43831 340 80.6735 340 170ZM121.307 177.068L75.3246 311.218C29.8948 280.701 0 228.842 0 170C0 149.416 3.65848 129.686 10.3607 111.425L121.307 177.068ZM124.618 167.407L181.86 0.407292C177.942 0.137253 173.987 0 170 0C100.275 0 40.3545 41.976 14.1298 102.036L124.618 167.407Z" fill="#1357A9"/>
</svg>
