<svg width="340" height="340" viewBox="0 0 340 340" fill="none" xmlns="http://www.w3.org/2000/svg">
<path fill-rule="evenodd" clip-rule="evenodd" d="M230 329.109C294.281 304.856 340 242.767 340 170C340 97.2326 294.281 35.1435 230 10.8911L230 329.109ZM220 332.528L220 7.47197C204.192 2.61445 187.401 0 170 0C152.599 0 135.808 2.61445 120 7.47196L120 332.528C135.808 337.386 152.599 340 170 340C187.401 340 204.192 337.386 220 332.528ZM110 329.109C45.7194 304.856 0 242.767 0 170C0 97.2326 45.7194 35.1435 110 10.8911L110 329.109Z" fill="#1357A9"/>
</svg>
