<svg width="340" height="340" viewBox="0 0 340 340" fill="none" xmlns="http://www.w3.org/2000/svg">
<path fill-rule="evenodd" clip-rule="evenodd" d="M332.217 221C337.274 204.9 340 187.769 340 170C340 152.965 337.495 136.516 332.832 121H7.16807C2.5055 136.516 0 152.965 0 170C0 187.769 2.72602 204.9 7.78265 221H332.217ZM328.728 231H11.272C35.7887 294.754 97.6105 340 170 340C242.389 340 304.211 294.754 328.728 231ZM10.5174 111H329.483C305.499 46.1941 243.144 0 170 0C96.8558 0 34.5008 46.1941 10.5174 111Z" fill="#1357A9"/>
</svg>
