<svg width="340" height="340" viewBox="0 0 340 340" fill="none" xmlns="http://www.w3.org/2000/svg">
<path fill-rule="evenodd" clip-rule="evenodd" d="M-7.43094e-06 170C-6.27154e-06 143.476 6.07431 118.371 16.9078 96L160 96L160 339.711C70.7662 334.535 -1.13882e-05 260.531 -7.43094e-06 170ZM170 340C263.888 340 340 263.888 340 170C340 143.476 333.926 118.371 323.092 96L170 96L170 340ZM170 -7.43094e-06C233.336 -4.66244e-06 288.582 34.6359 317.831 86L170 86L160 86L22.169 86C51.4179 34.6359 106.664 -1.01994e-05 170 -7.43094e-06Z" fill="#1357A9"/>
</svg>
