<svg width="340" height="293" viewBox="0 0 340 293" fill="none" xmlns="http://www.w3.org/2000/svg">
<path d="M339.838 146.279L255.005 292.279H85.0004L0.162295 146.279H0L0.0811449 146.139L0 146H0.162284L84.995 0H255L339.838 146H340L339.919 146.139L340 146.279H339.838Z" fill="#DC6902"/>
<path d="M340 146.279L255.005 292.559H175V293H165V292.559H85L0 146.279L85 0H255.005L340 146.279ZM175 282.559H249.249L325.69 151H175V282.559ZM90.7549 282.559H165V151H14.3086L90.7549 282.559ZM175 141H325.366L249.249 10H175V141ZM14.6328 141H165V10H90.7549L14.6328 141Z" fill="black"/>
</svg>
