<svg width="342" height="342" viewBox="0 0 342 342" fill="none" xmlns="http://www.w3.org/2000/svg">
<path fill-rule="evenodd" clip-rule="evenodd" d="M87.0807 318.844C168.228 364.92 271.486 336.949 318.222 256C331.969 232.19 339.301 206.438 340.755 180.743C339.845 181.978 338.38 182.78 336.727 182.78L165.615 182.78L87.0807 318.844ZM78.5289 313.656C3.01915 264.801 -21.7031 164.767 23.7734 85.9997C36.2446 64.399 52.7403 46.5707 71.7666 32.9149C71.8502 33.57 72.0657 34.2191 72.4231 34.8237L156.937 177.81L78.5289 313.656ZM79.1504 27.905C79.9049 28.3219 80.5614 28.9396 81.0317 29.7354L165.58 172.78L336.727 172.78C338.523 172.78 340.098 173.726 340.979 175.147C342.393 115.004 311.769 55.975 255.998 23.7754C199.038 -9.11059 130.957 -5.28723 79.1504 27.905Z" fill="#1357A9"/>
</svg>
