<svg width="340" height="340" viewBox="0 0 340 340" fill="none" xmlns="http://www.w3.org/2000/svg">
<path d="M161.218 339.773C191.597 341.344 221.842 334.735 248.797 320.635C275.751 306.535 298.429 285.461 314.464 259.611C330.499 233.76 339.304 204.08 339.96 173.668L170 170L81.6279 24.7749C57.0848 39.7099 36.727 60.6212 22.456 85.5562C8.18509 110.491 0.466129 138.636 0.0204532 167.363C-0.425143 196.089 6.41665 224.46 19.9072 249.826C33.187 274.795 52.483 296.05 76.04 311.673L77.165 312.414C102.273 328.781 131.27 338.224 161.218 339.773Z" fill="#1357A9"/>
<path d="M340 170C340 76.1116 263.888 0 170 0C135.677 0 103.731 10.1735 77.0098 27.667C76.9028 27.7286 76.7962 27.7928 76.6924 27.8633C76.6319 27.9043 76.5737 27.948 76.5156 27.9912C30.4185 58.3983 0 110.646 0 170C0 263.888 76.1116 340 170 340C263.888 340 340 263.888 340 170ZM76.373 299.758C36.1648 270.695 10 223.404 10 170C10 115.801 36.9507 67.8992 78.1797 38.957L167.423 170.448L76.373 299.758ZM329.904 175.5C327.005 261.319 256.525 330 170 330C138.623 330 109.358 320.966 84.6582 305.36L176.095 175.5L329.904 175.5ZM176.149 165.5L86.54 33.4697C110.839 18.5842 139.416 10 170 10C256.861 10 327.554 79.2152 329.937 165.5L176.149 165.5Z" fill="black"/>
</svg>
