<svg width="340" height="340" viewBox="0 0 340 340" fill="none" xmlns="http://www.w3.org/2000/svg">
<path d="M28.2985 76.0815C11.4927 101.438 1.79843 130.839 0.226982 161.218C-1.34446 191.597 5.26445 221.842 19.3644 248.797C33.4643 275.751 54.5386 298.429 80.389 314.464C106.24 330.499 135.919 339.304 166.332 339.96L170 170L28.2985 76.0815Z" fill="#1357A9"/>
<path d="M170 340C263.888 340 340 263.888 340 170C340 135.677 329.826 103.731 312.333 77.0098C312.271 76.9028 312.207 76.7962 312.137 76.6924C312.096 76.6319 312.052 76.5737 312.009 76.5156C281.602 30.4185 229.354 0 170 0C76.1116 0 0 76.1116 0 170C0 263.888 76.1116 340 170 340ZM40.2422 76.373C69.3053 36.1648 116.596 10 170 10C224.199 10 272.101 36.9507 301.043 78.1797L169.552 167.423L40.2422 76.373ZM164.5 329.904C78.6811 327.005 10 256.525 10 170C10 138.623 19.0343 109.358 34.6396 84.6582L164.5 176.095V329.904ZM174.5 176.149L306.53 86.54C321.416 110.839 330 139.416 330 170C330 256.861 260.785 327.554 174.5 329.937V176.149Z" fill="black"/>
</svg>
