<svg width="340" height="340" viewBox="0 0 340 340" fill="none" xmlns="http://www.w3.org/2000/svg">
<path d="M170 170L315.225 258.373C300.29 282.916 279.378 303.274 254.443 317.545C229.508 331.816 201.363 339.535 172.637 339.98C143.91 340.426 115.539 333.583 90.1738 320.093C64.8083 306.602 43.2749 286.903 27.5859 262.835C11.2186 237.727 1.77561 208.73 0.22651 178.782C-1.34489 148.403 5.26442 118.159 19.3642 91.2041C33.4641 64.2494 54.5382 41.5712 80.3886 25.5361C106.239 9.5011 135.919 0.696412 166.332 0.0400391L170 170Z" fill="#1357A9"/>
<path d="M170 0C263.888 0 340 76.1116 340 170C340 204.323 329.826 236.269 312.333 262.99C312.271 263.097 312.207 263.204 312.137 263.308C312.096 263.368 312.052 263.426 312.009 263.484C281.602 309.581 229.354 340 170 340C76.1116 340 0 263.888 0 170C0 76.1116 76.1116 0 170 0ZM40.2422 263.627C69.3053 303.835 116.596 330 170 330C224.199 330 272.101 303.049 301.043 261.82L169.552 172.577L40.2422 263.627ZM164.5 10.0957C78.6811 12.9947 10 83.4752 10 170C10 201.377 19.0343 230.642 34.6396 255.342L164.5 163.905V10.0957ZM174.5 163.851L306.53 253.46C321.416 229.161 330 200.584 330 170C330 83.1394 260.785 12.4463 174.5 10.0635V163.851Z" fill="black"/>
</svg>
