<svg width="340" height="340" viewBox="0 0 340 340" fill="none" xmlns="http://www.w3.org/2000/svg">
<path fill-rule="evenodd" clip-rule="evenodd" d="M338.127 195.324C335.53 212.709 330.301 229.234 322.859 244.48L271.219 177.843L338.127 195.324ZM339.321 185.3C339.77 180.26 340 175.157 340 170C340 76.1116 263.888 0 170 0C158.367 0 147.007 1.16842 136.031 3.39431L261.176 164.884L339.321 185.3ZM245.313 160.74L125.342 5.92639C75.911 19.3488 35.43 54.5131 14.8022 100.516L245.313 160.74ZM10.9495 109.845C3.87304 128.546 0 148.821 0 170C0 263.888 76.1116 340 170 340C233.261 340 288.451 305.446 317.726 254.183L255.356 173.699L10.9495 109.845Z" fill="#1357A9"/>
</svg>
