<svg width="340" height="340" viewBox="0 0 340 340" fill="none" xmlns="http://www.w3.org/2000/svg">
<path fill-rule="evenodd" clip-rule="evenodd" d="M298.944 280.79C324.533 251.035 340 212.324 340 170C340 139.146 331.781 110.213 317.412 85.2685L208.264 201.663L298.944 280.79ZM292.203 288.18L201.419 208.962L94.8991 322.554C117.546 333.724 143.04 340 170 340C217.967 340 261.295 320.134 292.203 288.18ZM85.7519 317.689C34.5244 288.404 0 233.234 0 170C0 130.336 13.5837 93.8449 36.3527 64.9246L193.88 202.383L85.7519 317.689ZM42.7675 57.2502L200.725 195.084L311.97 76.4531C281.557 30.3905 229.327 0 170 0C119.371 0 73.9107 22.1325 42.7675 57.2502Z" fill="#1357A9"/>
</svg>
