<svg width="340" height="340" viewBox="0 0 340 340" fill="none" xmlns="http://www.w3.org/2000/svg">
<path fill-rule="evenodd" clip-rule="evenodd" d="M183.767 0.549353L178.752 236.914L324.154 241.767C334.322 219.963 340 195.645 340 170C340 80.7461 271.217 7.5574 183.767 0.549353ZM173.775 0.0410906L168.757 236.58L11.3988 231.329C4.03713 212.304 0 191.623 0 170C0 76.1116 76.1116 0 170 0C171.262 0 172.52 0.013744 173.775 0.0410906ZM15.7121 241.478C42.2561 298.678 99.6723 338.639 166.563 339.966L168.545 246.579L15.7121 241.478ZM176.567 339.875C238.111 337.538 291.276 302.484 319.169 251.606L178.54 246.912L176.567 339.875Z" fill="#1357A9"/>
</svg>
