<svg width="358" height="358" viewBox="0 0 358 358" fill="none" xmlns="http://www.w3.org/2000/svg">
<path d="M174.964 7.5725L260.856 93.4646L89.8945 264.426L4.00246 178.534L174.964 7.5725ZM181.677 176.845L267.569 262.737L178.035 352.271L92.1429 266.379L181.677 176.845Z" fill="#814EBE"/>
<path d="M179.027 0.0559706L357.933 178.962L179.027 357.867L0.12172 178.962L179.027 0.0559706ZM268.212 254.541L343.791 178.962L261.675 96.8453L186.096 172.424L268.212 254.541ZM179.025 165.353L254.604 89.7743L179.027 14.1981L103.448 89.7771L179.025 165.353ZM261.141 261.612L179.025 179.495L96.9111 261.609L179.027 343.725L261.141 261.612ZM171.953 172.424L96.3773 96.8481L14.2639 178.962L89.84 254.538L171.953 172.424Z" fill="black"/>
</svg>
