<svg width="359" height="359" viewBox="0 0 359 359" fill="none" xmlns="http://www.w3.org/2000/svg">
<path d="M179.386 358.149L179.387 181.383L356.153 181.382L179.386 358.149ZM178.77 178.767L2.00321 178.766L178.77 2L178.77 178.767Z" fill="#814EBE"/>
<path d="M178.973 357.942L0.0670629 179.036L178.973 0.130859L357.878 179.036L178.973 357.942ZM20.1706 184.998L175 339.827L175 184.997L20.1706 184.998ZM18.2481 174.998L175 174.997L175 18.2456L18.2481 174.998ZM185 184.997L185 337.772L337.775 184.998L185 184.997ZM185 174.998L339.698 174.998L185 20.3L185 174.998Z" fill="black"/>
</svg>
