<svg width="358" height="358" viewBox="0 0 358 358" fill="none" xmlns="http://www.w3.org/2000/svg">
<path d="M176.378 355.426L90.4856 269.534L180.02 180L265.912 265.892L176.378 355.426ZM176.378 181.077L90.4856 95.1853L180.02 5.65137L265.912 91.5434L176.378 181.077Z" fill="#814EBE"/>
<path d="M179.027 357.867L0.12175 178.961L179.027 0.0556641L357.933 178.961L179.027 357.867ZM89.8428 103.382L14.2639 178.961L96.3801 261.078L171.959 185.499L89.8428 103.382ZM179.03 192.57L103.451 268.149L179.027 343.725L254.606 268.146L179.03 192.57ZM96.9139 96.3113L179.03 178.427L261.144 96.314L179.027 14.1978L96.9139 96.3113ZM186.101 185.499L261.677 261.075L343.791 178.961L268.215 103.385L186.101 185.499Z" fill="black"/>
</svg>
